# xmcd
#
# Track frame offsets: 
#        150
#        16494
#        30404
#        37284
#        49186
#        60844
#        70197
#        82428
#        93180
#        108674
#        118524
#        133705
#        144638
#        155802
#        167818
#        179166
#        189061
#        202492
#
# Disc length: 2874 seconds
#
# Revision: 0
# Processed by: cddbd v1.5.2PL0 Copyright (c) Steve Scherf et al.
# Submitted via: ExactAudioCopy v1.1
#
DISCID=0e0b3812
DTITLE=Various Artist - The Country Outlaws: The Bad Side of Country 
DTITLE=[Disc 1] 
DYEAR=1900
DGENRE=Country
TTITLE0=Johnny Cash - A Boy Named Sue (live)
TTITLE1=Willie Nelson - Blue Eyes Crying in the Rain (live)
TTITLE2=Willie Nelson - It's So Easy
TTITLE3=Hank Williams - I'll Be a Batchelor Till I Die
TTITLE4=Jerry Lee Lewis - Chantilly Lace (live)
TTITLE5=Faron Young - King of the Road
TTITLE6=Billie Jo Spears - You Never Can Tell
TTITLE7=Don Williams - There's Always Something There to Remind Me
TTITLE8=Jolene Parsons - Don't It Make My Brown Eyes Blue
TTITLE9=Carl Perkins - This Ole House
TTITLE10=Glen Houston - Gentle On My Mind
TTITLE11=Loretta Lynn - Crazy (live)
TTITLE12=Don Gibson - Oh Lonesome Me
TTITLE13=Kenny Rogers - Me and Bobby McGee
TTITLE14=Lost Angels - Mr. Tambourine Man
TTITLE15=Buck Owens - Rhythm and Booze
TTITLE16=Gene Vincent - I'm A Lonesome Fugitive
TTITLE17=George Jones - Hello Darlin'
EXTD=Barcode: 5060083503169
EXTT0=
EXTT1=
EXTT2=
EXTT3=
EXTT4=
EXTT5=
EXTT6=
EXTT7=
EXTT8=
EXTT9=
EXTT10=
EXTT11=
EXTT12=
EXTT13=
EXTT14=
EXTT15=
EXTT16=
EXTT17=
PLAYORDER=
